<?xml version="1.0" encoding="UTF-8"?>
<svg id="Capa_1" data-name="Capa 1" xmlns="http://www.w3.org/2000/svg" version="1.1" viewBox="0 0 1080 1080">
  <defs>
    <style>
      .cls-1 {
        fill: none;
        stroke: #fff;
        stroke-miterlimit: 10;
        stroke-width: 16.4px;
      }

      .cls-2 {
        fill: #fff;
        stroke-width: 0px;
      }
    </style>
  </defs>
  <g>
    <g>
      <path class="cls-2" d="M346.4,893l-15.6-25.8c-1.8-3-5.7-3.9-8.6-2.1l-25.8,15.6c-3,1.8-3.9,5.7-2.1,8.6l15.6,25.8c1.8,3,5.7,3.9,8.6,2.1l25.8-15.6c2.9-1.8,3.9-5.7,2.1-8.6Z"/>
      <path class="cls-2" d="M211.8,675.4l-15.6-25.8c-1.8-3-5.7-3.9-8.6-2.1l-25.9,15.5c-3,1.8-3.9,5.7-2.1,8.6l15.6,25.8c1.8,3,5.7,3.9,8.6,2.1l25.8-15.6c3.1-1.7,4-5.5,2.2-8.5Z"/>
      <path class="cls-2" d="M568,759l-15.6-25.8c-1.8-3-5.7-3.9-8.6-2.1l-25.8,15.6c-3,1.8-3.9,5.7-2.1,8.6l15.6,25.8c1.8,3,5.7,3.9,8.6,2.1l25.8-15.6c3-1.7,3.9-5.6,2.1-8.6Z"/>
      <path class="cls-2" d="M510,190.9l-25.4,16.2c-2.9,1.9-6.8,1-8.7-1.9l-16.2-25.4c-1.9-2.9-1-6.8,1.9-8.7l25.4-16.2c2.9-1.9,6.8-1,8.7,1.9l16.2,25.4c1.9,2.9,1,6.8-1.9,8.7Z"/>
      <path class="cls-2" d="M80.8,464.5l-25.4,16.2c-2.9,1.9-6.8,1-8.7-1.9l-16.2-25.4c-1.9-2.9-1-6.8,1.9-8.7l25.4-16.2c2.9-1.9,6.8-1,8.7,1.9l16.2,25.4c1.9,2.9,1.1,6.8-1.9,8.7Z"/>
      <path class="cls-2" d="M298.3,323.8l-25.5,16.2c-2.9,1.9-6.8,1-8.7-1.9l-16.2-25.4c-1.9-2.9-1-6.8,1.9-8.7l25.4-16.2c2.9-1.9,6.8-1,8.7,1.9l16.2,25.4c2,2.9,1.1,6.8-1.8,8.7Z"/>
      <path class="cls-2" d="M641.3,389.9l-25.4,16.2c-2.9,1.9-6.8,1-8.7-1.9l-16.2-25.4c-1.9-2.9-1-6.8,1.9-8.7l25.4-16.2c2.9-1.9,6.8-1,8.7,1.9l16.2,25.4c1.9,3,1,6.8-1.9,8.7Z"/>
    </g>
    <g>
      <line class="cls-1" x1="53.4" y1="454.6" x2="484.8" y2="179.5"/>
      <line class="cls-1" x1="685.9" y1="485.1" x2="484.8" y2="179.5"/>
      <line class="cls-1" x1="53.4" y1="454.6" x2="318" y2="892.5"/>
      <line class="cls-1" x1="610.1" y1="716" x2="318" y2="892.5"/>
      <path class="cls-1" d="M220,570.4l145-19.8c.9,0,1.6-1,1.5-2l-19.8-145c-.1-.9-1-1.6-2-1.5l-145,19.8c-.9.1-1.6,1-1.5,2l19.8,145c.2,1,1.1,1.6,2,1.5Z"/>
      <circle class="cls-1" cx="436.4" cy="440.4" r="49.4"/>
      <path class="cls-1" d="M560,569.1l-26.6-46.1c-3.3-5.7-9.4-9.2-16-9.2h-81.6c-6.6,0-12.7,3.5-16,9.2l-40.8,70.7c-3.3,5.7-3.3,12.7,0,18.4l40.8,70.7c3.3,5.7,9.4,9.2,16,9.2h81.6c6.6,0,12.7-3.5,16-9.2"/>
    </g>
  </g>
  <path class="cls-1" d="M757.9,438l214.7-136.9c28.3-18,62.7,11.6,49.2,42.2l-112.1,254c-4.2,9.6-3.8,20.6,1.2,29.9l135.4,248.8c16,29.4-15.7,61.6-45.4,46.2l-226.9-118-273.2-142.1c-23.1-12-24.6-44.6-2.6-58.6l259.7-165.5Z"/>
</svg>