<?xml version="1.0" encoding="utf-8"?>
<!-- Generator: Adobe Illustrator 28.1.0, SVG Export Plug-In . SVG Version: 6.00 Build 0)  -->
<svg version="1.1" id="Capa_1" xmlns="http://www.w3.org/2000/svg" xmlns:xlink="http://www.w3.org/1999/xlink" x="0px" y="0px"
	 viewBox="0 0 624.4 624.4" style="enable-background:new 0 0 624.4 624.4;" xml:space="preserve">
<style type="text/css">
	.st0{fill:#FFFFFF;}
</style>
<g>
	<g id="Shape_5">
		<g>
			<path class="st0" d="M472.8,93.6c-4.5-2.5-10.2-1.8-13.9,1.9s-4.5,9.4-1.9,13.9c21.5,38.5,32.9,82.3,32.9,126.5
				c0,143.4-116.6,260-260,260c-44.3,0-88-11.4-126.5-32.9c-4.5-2.5-10.2-1.8-13.9,1.9c-3.7,3.7-4.5,9.4-1.9,13.9
				c50.1,89.7,144.9,145.4,247.5,145.4c156.2,0,283.3-127.1,283.3-283.3C618.2,238.5,562.5,143.6,472.8,93.6z M334.9,601
				c-80.5,0-155.9-37.4-204.7-99.8c31.7,11.9,65.6,18.1,99.7,18.1c156.2,0,283.3-127.1,283.3-283.3c0-34.1-6.2-68-18.1-99.7
				c62.4,48.9,99.8,124.2,99.8,204.8C594.8,484.4,478.2,601,334.9,601z M136.5,167.3c1.7,0.9,3.6,1.3,5.4,1.3c2.4,0,4.8-0.7,6.9-2.2
				c3.6-2.6,5.4-7,4.6-11.4l-8-46.7l33.9-33.1c3.2-3.1,4.3-7.7,3-12c-1.4-4.2-5-7.3-9.4-7.9L126,48.5L105,6c-3.9-8-17-8-20.9,0
				l-21,42.5l-46.9,6.8c-4.4,0.6-8.1,3.7-9.4,7.9c-1.4,4.2-0.2,8.9,3,12l33.9,33.1l-8,46.7c-0.8,4.4,1.1,8.8,4.6,11.4
				c3.6,2.6,8.4,3,12.3,0.9l41.9-22L136.5,167.3z M62.7,135.6l5-29.4c0.6-3.8-0.6-7.6-3.4-10.3L42.9,75l29.6-4.3
				c3.8-0.5,7.1-2.9,8.8-6.4l13.2-26.8l13.2,26.8c1.7,3.4,5,5.8,8.8,6.4l29.6,4.3l-21.4,20.9c-2.7,2.7-4,6.5-3.3,10.3l5,29.4
				L100,121.7c-1.7-0.9-3.6-1.3-5.4-1.3c-1.9,0-3.7,0.4-5.4,1.3L62.7,135.6z"/>
		</g>
	</g>
</g>
</svg>
